<svg width="42" height="49" viewBox="0 0 42 49" fill="none" xmlns="http://www.w3.org/2000/svg">
<path d="M28.5913 7.82415C26.8696 9.82971 23.9478 11.3153 21.6 11.3153C21.3391 11.3153 21.0783 11.2658 20.9217 11.241C20.8696 11.1172 20.8174 10.7458 20.8174 10.3497C20.8174 7.82415 22.1739 5.29864 23.6348 3.714C25.513 1.63416 28.6435 0.0990399 31.2261 0C31.3043 0.27236 31.3304 0.619 31.3304 0.965639C31.3304 3.49116 30.2087 5.99192 28.5913 7.82415ZM30.4435 11.8353C31.9043 11.8353 37.2 11.9838 40.6435 16.713C40.3565 16.9358 35.087 19.7585 35.087 26.0475C35.087 33.3022 41.7913 35.902 42 35.9515C41.9478 36.1248 40.9304 39.4674 38.4522 42.909C36.2609 45.905 33.9391 48.9505 30.4435 48.9505C26.8957 48.9505 26.0087 46.9944 21.9652 46.9944C18.0261 46.9944 16.6174 49 13.4087 49C10.2 49 7.95652 46.2021 5.4 42.7852C2.4 38.7494 0 32.4851 0 26.5427C0 17.0349 6.52174 11.9838 12.9652 11.9838C16.3565 11.9838 19.1739 14.0884 21.3391 14.0884C23.3739 14.0884 26.5304 11.8353 30.4435 11.8353Z" fill="black"/>
</svg>
