<svg width="27" height="28" viewBox="0 0 27 28" fill="none" xmlns="http://www.w3.org/2000/svg">
<path d="M0 11.6252C0 10.0237 0.2909 8.52334 0.8727 7.12426C1.46345 5.71598 2.27797 4.47798 3.31626 3.41026C4.35455 2.34254 5.55395 1.50953 6.91447 0.911243C8.28394 0.303748 9.75186 0 11.3182 0C12.8757 0 14.3347 0.303748 15.6952 0.911243C17.0646 1.50953 18.2685 2.34254 19.3068 3.41026C20.3451 4.47798 21.1551 5.71598 21.7369 7.12426C22.3277 8.52334 22.6231 10.0237 22.6231 11.6252C22.6231 12.7574 22.4709 13.8389 22.1666 14.8698C21.8623 15.9007 21.4371 16.8488 20.8911 17.714L26.2213 23.2229C26.4809 23.499 26.6733 23.8028 26.7986 24.1341C26.9329 24.4747 27 24.8291 27 25.1972C27 25.7219 26.8836 26.1959 26.6509 26.6193C26.4182 27.0427 26.096 27.3787 25.6842 27.6272C25.2815 27.8757 24.8205 28 24.3013 28C23.9344 28 23.5808 27.931 23.2407 27.7929C22.9005 27.664 22.6007 27.4661 22.3411 27.1992L16.9438 21.6489C16.1293 22.1552 15.2432 22.551 14.2854 22.8363C13.3366 23.1216 12.3476 23.2643 11.3182 23.2643C9.75186 23.2643 8.28394 22.9652 6.91447 22.3669C5.55395 21.7594 4.35455 20.9218 3.31626 19.854C2.27797 18.7863 1.46345 17.5529 0.8727 16.1538C0.2909 14.7456 0 13.236 0 11.6252ZM3.82645 11.6252C3.82645 12.693 4.0189 13.6917 4.40378 14.6213C4.79761 15.551 5.33466 16.3702 6.01492 17.0789C6.70413 17.7784 7.50075 18.3307 8.40477 18.7357C9.3088 19.1315 10.28 19.3294 11.3182 19.3294C12.3476 19.3294 13.3143 19.1315 14.2183 18.7357C15.1223 18.3307 15.9145 17.7784 16.5947 17.0789C17.2839 16.3702 17.821 15.551 18.2059 14.6213C18.5997 13.6917 18.7966 12.693 18.7966 11.6252C18.7966 10.5667 18.5997 9.57265 18.2059 8.643C17.821 7.71335 17.2839 6.89875 16.5947 6.19921C15.9145 5.49047 15.1223 4.9382 14.2183 4.54241C13.3143 4.13741 12.3476 3.93491 11.3182 3.93491C10.28 3.93491 9.3088 4.13741 8.40477 4.54241C7.50075 4.9382 6.70413 5.49047 6.01492 6.19921C5.33466 6.89875 4.79761 7.71335 4.40378 8.643C4.0189 9.57265 3.82645 10.5667 3.82645 11.6252Z" fill="#5CE009"/>
</svg>
