<svg width="38" height="35" viewBox="0 0 38 35" fill="none" xmlns="http://www.w3.org/2000/svg">
<path fill-rule="evenodd" clip-rule="evenodd" d="M24.764 3.5L36.4553 23.75C39.1496 28.4167 35.7817 34.25 30.3931 34.25H7.01044C1.62183 34.25 -1.74603 28.4167 0.948265 23.75L12.6396 3.5C15.3339 -1.16667 22.0697 -1.16666 24.764 3.5ZM20.4338 6C19.664 4.66667 17.7395 4.66667 16.9697 6L5.27839 26.25C4.50859 27.5833 5.47084 29.25 7.01044 29.25H30.3931C31.9327 29.25 32.895 27.5833 32.1252 26.25L20.4338 6Z" fill="#EA4335"/>
<path d="M19.6449 12.1606C20.2135 12.1606 20.6677 12.6342 20.644 13.2024L20.3704 19.7559C20.348 20.2915 19.9073 20.7142 19.3712 20.7142H18.7002C18.1641 20.7142 17.7234 20.2915 17.701 19.7559L17.4274 13.2024C17.4037 12.6342 17.8579 12.1606 18.4265 12.1606H19.6449ZM19.0803 25.2856C18.5446 25.2856 18.1041 25.1309 17.7589 24.8214C17.4256 24.4999 17.2589 24.1071 17.2589 23.6428C17.2589 23.1666 17.4256 22.7678 17.7589 22.4464C18.1041 22.1249 18.5446 21.9642 19.0803 21.9642C19.6041 21.9642 20.0327 22.1249 20.3661 22.4464C20.7113 22.7678 20.8839 23.1666 20.8839 23.6428C20.8839 24.1071 20.7113 24.4999 20.3661 24.8214C20.0327 25.1309 19.6041 25.2856 19.0803 25.2856Z" fill="#EA4335"/>
</svg>
