<svg width="35" height="19" viewBox="0 0 35 19" fill="none" xmlns="http://www.w3.org/2000/svg">
<path fill-rule="evenodd" clip-rule="evenodd" d="M0 1.67647C0 0.750581 0.750581 0 1.67647 0H32.9706C33.8965 0 34.6471 0.750581 34.6471 1.67647C34.6471 2.60236 33.8965 3.35294 32.9706 3.35294H1.67647C0.750581 3.35294 0 2.60236 0 1.67647Z" fill="#5CE009"/>
<path fill-rule="evenodd" clip-rule="evenodd" d="M5.58826 9.49996C5.58826 8.57407 6.33884 7.82349 7.26473 7.82349H27.3824C28.3083 7.82349 29.0588 8.57407 29.0588 9.49996C29.0588 10.4258 28.3083 11.1764 27.3824 11.1764H7.26473C6.33884 11.1764 5.58826 10.4258 5.58826 9.49996Z" fill="#5CE009"/>
<path fill-rule="evenodd" clip-rule="evenodd" d="M11.1765 17.3236C11.1765 16.3977 11.927 15.6471 12.8529 15.6471H21.7941C22.72 15.6471 23.4706 16.3977 23.4706 17.3236C23.4706 18.2495 22.72 19 21.7941 19H12.8529C11.927 19 11.1765 18.2495 11.1765 17.3236Z" fill="#5CE009"/>
</svg>
