<svg width="37" height="37" viewBox="0 0 37 37" fill="none" xmlns="http://www.w3.org/2000/svg">
<path d="M18.4912 37C15.958 37 13.5766 36.5153 11.3469 35.5459C9.11721 34.5882 7.15018 33.2568 5.44581 31.5516C3.74144 29.8581 2.4048 27.896 1.43587 25.6652C0.478624 23.4345 0 21.0461 0 18.5C0 15.9656 0.478624 13.583 1.43587 11.3523C2.4048 9.12153 3.7356 7.15357 5.4283 5.44839C7.13267 3.74321 9.0997 2.41177 11.3294 1.45407C13.5708 0.484691 15.958 0 18.4912 0C21.0245 0 23.4059 0.484691 25.6356 1.45407C27.877 2.41177 29.844 3.74321 31.5367 5.44839C33.241 7.15357 34.5777 9.12153 35.5466 11.3523C36.5155 13.583 37 15.9656 37 18.5C37 21.0461 36.5155 23.4345 35.5466 25.6652C34.5777 27.896 33.241 29.8581 31.5367 31.5516C29.844 33.2568 27.8828 34.5882 25.6531 35.5459C23.4234 36.5153 21.0361 37 18.4912 37ZM18.4912 32.3925C20.4174 32.3925 22.221 32.0305 23.902 31.3063C25.5831 30.5939 27.0598 29.607 28.3322 28.3456C29.6047 27.0726 30.5969 25.5952 31.309 23.9134C32.0328 22.2315 32.3947 20.4271 32.3947 18.5C32.3947 16.5729 32.0328 14.7743 31.309 13.1042C30.5853 11.4223 29.5872 9.94492 28.3147 8.67187C27.054 7.39883 25.5831 6.40609 23.902 5.69366C22.221 4.96954 20.4174 4.60748 18.4912 4.60748C16.5651 4.60748 14.7615 4.96954 13.0805 5.69366C11.4111 6.40609 9.94021 7.39883 8.66777 8.67187C7.39533 9.94492 6.40306 11.4223 5.69096 13.1042C4.97886 14.7743 4.62281 16.5729 4.62281 18.5C4.62281 20.4271 4.97886 22.2315 5.69096 23.9134C6.40306 25.5952 7.39533 27.0726 8.66777 28.3456C9.94021 29.607 11.4169 30.5939 13.098 31.3063C14.779 32.0305 16.5767 32.3925 18.4912 32.3925ZM16.6526 26.839C16.2907 26.839 15.958 26.7573 15.6545 26.5937C15.3627 26.4186 15.0825 26.1791 14.814 25.8755L10.9091 21.1804C10.5472 20.7366 10.3663 20.2869 10.3663 19.8314C10.3663 19.3292 10.5472 18.8971 10.9091 18.535C11.271 18.173 11.7029 17.992 12.2049 17.992C12.5084 17.992 12.7769 18.0562 13.0104 18.1847C13.2556 18.3015 13.489 18.5 13.7108 18.7803L16.6176 22.3717L22.9039 12.2457C23.3359 11.545 23.8787 11.1946 24.5324 11.1946C25.0227 11.1946 25.4605 11.3581 25.8457 11.6851C26.231 12.0005 26.4236 12.4151 26.4236 12.929C26.4236 13.1392 26.3827 13.3553 26.301 13.5772C26.2193 13.7991 26.1084 14.0152 25.9683 14.2254L18.4387 25.8404C18.0068 26.5062 17.4114 26.839 16.6526 26.839Z" fill="#5CE009" fill-opacity="0.7"/>
</svg>
