<svg width="45" height="46" viewBox="0 0 45 46" fill="none" xmlns="http://www.w3.org/2000/svg">
<path fill-rule="evenodd" clip-rule="evenodd" d="M44.16 23.0427C44.16 21.4451 44.0167 19.9089 43.7504 18.4342H22.5307V27.1495H34.6562C34.1339 29.9658 32.5465 32.352 30.1603 33.9496V39.6027H37.4418C41.7022 35.6804 44.16 29.9043 44.16 23.0427Z" fill="#4285F4"/>
<path fill-rule="evenodd" clip-rule="evenodd" d="M22.5307 45.0613C28.6139 45.0613 33.714 43.0437 37.4418 39.6027L30.1603 33.9496C28.1428 35.3014 25.5621 36.1002 22.5307 36.1002C16.6625 36.1002 11.6955 32.1369 9.92377 26.8115H2.3965V32.6489C6.10381 40.0123 13.7232 45.0613 22.5307 45.0613Z" fill="#34A853"/>
<path fill-rule="evenodd" clip-rule="evenodd" d="M9.92371 26.8114C9.47309 25.4595 9.21707 24.0155 9.21707 22.5306C9.21707 21.0456 9.47309 19.6016 9.92371 18.2497V12.4123H2.39644C0.870501 15.4539 0 18.8949 0 22.5306C0 26.1662 0.870501 29.6072 2.39644 32.6488L9.92371 26.8114Z" fill="#FBBC05"/>
<path fill-rule="evenodd" clip-rule="evenodd" d="M22.5307 8.96104C25.8386 8.96104 28.8085 10.0978 31.1435 12.3304L37.6057 5.8682C33.7038 2.23258 28.6037 0 22.5307 0C13.7232 0 6.10381 5.0489 2.3965 12.4123L9.92377 18.2498C11.6955 12.9244 16.6625 8.96104 22.5307 8.96104Z" fill="#EA4335"/>
</svg>
