<svg width="124" height="136" viewBox="0 0 124 136" fill="none" xmlns="http://www.w3.org/2000/svg">
<g filter="url(#filter0_d_0_193)">
<path fill-rule="evenodd" clip-rule="evenodd" d="M71.5244 58.6614L74.3994 72.4706L75.5092 77.8013L76.998 72.5624L79.7098 63.019L80.9419 68.8396L81.6756 72.3062L83.4192 69.2155L84.5257 67.254L92.0134 67.2538C92.0183 67.3243 92.023 67.3948 92.0274 67.4654C93.3578 68.1873 94.2599 69.587 94.2599 71.1953V74.8584C94.2599 77.206 92.3378 79.1091 89.9668 79.1091H34.8181C32.4471 79.1091 30.525 77.206 30.525 74.8584V71.1953C30.525 69.4115 31.6347 67.8844 33.2078 67.2537L69.0974 67.2541L69.3713 66.2843C69.377 66.2642 69.3818 66.2471 69.3866 66.2303L69.3937 66.2049C69.4188 66.1161 69.4519 65.9992 69.5988 65.4792C69.6888 65.1605 69.7482 64.9499 69.8038 64.7531L69.8213 64.6914C69.8242 64.6811 69.8271 64.6708 69.83 64.6606L69.8474 64.5989C69.9407 64.2688 70.0428 63.9073 70.281 63.0638L70.3125 62.9522C70.8743 60.9633 71.1346 60.0419 71.5231 58.6666L71.5244 58.6614ZM68.0979 36.1013C70.4318 36.1013 72.3239 37.9747 72.3239 40.2856V44.8378L75.1328 45.6734L75.1333 42.8391C83.7761 46.8639 90.1256 54.9365 91.7041 64.5972L82.957 64.5972L82.8274 64.8266L81.2098 57.1834L80.0904 51.8941L78.6122 57.0959L75.9106 66.6022L73.032 52.7748L71.9184 47.4258L70.4329 52.685C69.5037 55.9745 69.0922 57.4313 68.7265 58.7262L68.6844 58.875C68.6705 58.9244 68.6566 58.9737 68.6427 59.023L68.6037 59.1607C68.5935 59.1971 68.5832 59.2335 68.5729 59.2699L68.5108 59.4897C68.2923 60.2633 68.0567 61.0972 67.7039 62.3465C67.4582 63.2163 67.3573 63.5736 67.2615 63.9125L67.2267 64.0359C67.1828 64.1912 67.1365 64.3552 67.0746 64.5741L67.068 64.5971L33.5827 64.5973C35.1508 54.999 41.4287 46.9683 49.9862 42.9176L49.9865 45.6734L52.7954 44.8378V40.2856C52.7954 37.9747 54.6875 36.1013 57.0214 36.1013H68.0979Z" fill="#5CE009"/>
<path d="M111.546 67.2958C107.626 78.9352 103.138 88.6039 98.081 96.3019C90.4955 107.849 80.9564 114.931 63.7122 126.908L62.1406 128L60.5525 126.932C45.2022 116.61 33.7958 106.449 26.3365 96.4105C21.3832 89.7446 16.7383 80.0396 12.4017 67.2958C18.5859 78.9518 24.0341 87.9507 28.7464 94.2924C35.5039 103.386 47.9416 111.57 61.9124 121.148L62.0915 121.271L62.4969 120.985C77.9469 110.093 90.0942 102.133 95.1547 94.717L95.3127 94.4835C98.8699 89.1823 104.281 80.1197 111.546 67.2958ZM62.1668 0L63.4588 0.670294L117.953 28.9402L119.68 29.8361L119.427 31.7549L112.001 64.4901L113.646 32.9527L62.1702 6.24895L10.8526 32.9474L12.1827 64.5447L5.06778 31.7634L4.80762 29.8415L6.53701 28.9417L60.8755 0.671806L62.1668 0Z" fill="white"/>
</g>
<defs>
<filter id="filter0_d_0_193" x="0.807617" y="0" width="122.873" height="136" filterUnits="userSpaceOnUse" color-interpolation-filters="sRGB">
<feFlood flood-opacity="0" result="BackgroundImageFix"/>
<feColorMatrix in="SourceAlpha" type="matrix" values="0 0 0 0 0 0 0 0 0 0 0 0 0 0 0 0 0 0 127 0" result="hardAlpha"/>
<feOffset dy="4"/>
<feGaussianBlur stdDeviation="2"/>
<feComposite in2="hardAlpha" operator="out"/>
<feColorMatrix type="matrix" values="0 0 0 0 0 0 0 0 0 0 0 0 0 0 0 0 0 0 0.25 0"/>
<feBlend mode="normal" in2="BackgroundImageFix" result="effect1_dropShadow_0_193"/>
<feBlend mode="normal" in="SourceGraphic" in2="effect1_dropShadow_0_193" result="shape"/>
</filter>
</defs>
</svg>
