<svg width="17" height="30" viewBox="0 0 17 30" fill="none" xmlns="http://www.w3.org/2000/svg">
<path opacity="0.5" d="M8.00781 28.875L6.09766 27.1992C5.75781 26.8945 5.64062 26.4492 5.64062 26.0625V15C2.79297 13.7461 0.988281 10.957 0.988281 7.81641C0.988281 3.46875 4.46875 0 8.82812 0C13.1523 0 16.6562 3.49219 16.6562 7.81641C16.6562 10.9336 14.8398 13.5586 11.6172 15.1055L14.0664 17.5664C14.5117 18.0352 14.5352 18.75 14.0781 19.1953L11.4297 21.832L13.2461 23.6367C13.6914 24.0938 13.7148 24.7969 13.2578 25.2656L9.63672 28.8867C9.16797 29.3438 8.5 29.2852 8.00781 28.875ZM8.82812 27.0234L11.3828 24.4336L9.71875 22.793V20.8477L12.2031 18.3984L9.90625 16.0898V13.7227C12.8477 13.0195 14.7695 10.6172 14.7695 7.81641C14.7695 4.53516 12.1211 1.88672 8.82812 1.88672C5.52344 1.88672 2.86328 4.53516 2.86328 7.81641C2.86328 10.6406 4.77344 13.0195 7.52734 13.6406V25.7344L8.82812 27.0234ZM8.82812 7.92188C7.64453 7.92188 6.69531 6.97266 6.69531 5.78906C6.69531 4.60547 7.63281 3.66797 8.82812 3.66797C10 3.66797 10.9492 4.61719 10.9492 5.78906C10.9492 6.97266 10 7.92188 8.82812 7.92188Z" fill="white"/>
</svg>
