<svg width="21" height="22" viewBox="0 0 21 22" fill="none" xmlns="http://www.w3.org/2000/svg">
<path opacity="0.5" d="M10.2422 10.8633C7.45312 10.8633 5.19141 8.39062 5.17969 5.37891C5.17969 2.40234 7.46484 0 10.2422 0C13.043 0 15.3047 2.35547 15.3047 5.35547C15.3047 8.37891 13.0312 10.8633 10.2422 10.8633ZM10.2422 9.09375C11.9648 9.09375 13.418 7.42969 13.418 5.35547C13.418 3.31641 11.9883 1.76953 10.2422 1.76953C8.50781 1.76953 7.06641 3.33984 7.06641 5.37891C7.06641 7.45312 8.53125 9.09375 10.2422 9.09375ZM2.87109 21.7031C0.925781 21.7031 0 21.1172 0 19.8281C0 16.7578 3.87891 12.3164 10.2422 12.3164C16.5938 12.3164 20.4727 16.7578 20.4727 19.8281C20.4727 21.1172 19.5469 21.7031 17.6016 21.7031H2.87109ZM2.32031 19.9336H18.1641C18.4688 19.9336 18.5859 19.8516 18.5859 19.6055C18.5859 17.6836 15.6094 14.0859 10.2422 14.0859C4.86328 14.0859 1.88672 17.6836 1.88672 19.6055C1.88672 19.8516 2.01562 19.9336 2.32031 19.9336Z" fill="white"/>
</svg>
